<?xml version="1.0" encoding="iso-8859-1"?>
<!-- Generator: Adobe Illustrator 19.0.0, SVG Export Plug-In . SVG Version: 6.00 Build 0)  -->
<svg version="1.1" id="Layer_1" xmlns="http://www.w3.org/2000/svg" xmlns:xlink="http://www.w3.org/1999/xlink" x="0px" y="0px"
	 viewBox="0 0 512 512" style="enable-background:new 0 0 512 512;" xml:space="preserve">
<g>
	<g>
		<path d="M408.058,48.979c-20.061,0-39.182,5.614-55.649,16.113c-6.065-15.036-15.629-28.583-28.037-39.432
			C305.447,9.113,281.166,0,256,0c-25.166,0-49.447,9.113-68.372,25.661c-12.407,10.849-21.971,24.396-28.037,39.432
			c-16.467-10.499-35.588-16.113-55.649-16.113C46.628,48.979,0,95.607,0,152.921c0,52.221,38.711,95.57,88.942,102.863V512h334.115
			V255.784C473.289,248.491,512,205.142,512,152.921C512,95.607,465.372,48.979,408.058,48.979z M393.057,482H118.942v-61h274.115
			V482z M408.058,226.863h-15V391H118.942V226.863h-15C63.17,226.863,30,193.693,30,152.921c0-40.771,33.17-73.941,73.942-73.941
			c20.248,0,39.153,8.047,53.234,22.658l21.299,22.101l4.351-30.384C187.998,57.236,219.456,30,256,30s68.002,27.236,73.174,63.354
			l4.351,30.384l21.299-22.101c14.081-14.611,32.986-22.658,53.234-22.658c40.772,0,73.942,33.17,73.942,73.941
			C482,193.693,448.83,226.863,408.058,226.863z"/>
	</g>
</g>
<g>
</g>
<g>
</g>
<g>
</g>
<g>
</g>
<g>
</g>
<g>
</g>
<g>
</g>
<g>
</g>
<g>
</g>
<g>
</g>
<g>
</g>
<g>
</g>
<g>
</g>
<g>
</g>
<g>
</g>
</svg>
