<?xml version="1.0" encoding="iso-8859-1"?>
<!-- Generator: Adobe Illustrator 19.0.0, SVG Export Plug-In . SVG Version: 6.00 Build 0)  -->
<svg version="1.1" id="Capa_1" xmlns="http://www.w3.org/2000/svg" xmlns:xlink="http://www.w3.org/1999/xlink" x="0px" y="0px"
	 viewBox="0 0 512.001 512.001" style="enable-background:new 0 0 512.001 512.001;" xml:space="preserve">
<path style="fill:#F0DBC2;" d="M409.551,93.938c-18.221-0.017-36.042,5.306-51.269,15.304
	C357.25,52.752,310.621,7.795,254.132,8.827c-55.04,1.007-99.407,45.374-100.414,100.414c-43.37-28.364-101.532-16.2-129.896,27.17
	s-16.2,101.532,27.17,129.896c15.295,10.006,33.176,15.321,51.457,15.304v221.796h307.103V281.612
	c51.824,0,93.837-42.013,93.837-93.837S461.375,93.938,409.551,93.938z"/>
<path style="fill:#E6CCAF;" d="M409.551,93.938c-1.928,0-3.83,0.094-5.724,0.213c-57.403,193.304-214.52,263.434-301.379,289.828
	v119.429h307.103V281.612c51.824,0,93.837-42.013,93.837-93.837S461.375,93.938,409.551,93.938z"/>
<g>
	<polygon style="fill:#D4B99B;" points="335.411,375.448 358.069,292.386 341.605,287.899 317.727,375.448 264.53,375.448 
		264.53,281.612 247.469,281.612 247.469,375.448 194.272,375.448 170.395,287.899 153.931,292.386 176.588,375.448 
		102.448,375.448 102.448,392.51 409.551,392.51 409.551,375.448 	"/>
	<rect x="128.04" y="409.554" style="fill:#D4B99B;" width="281.511" height="17.061"/>
</g>
<path d="M409.551,85.407c-15.167-0.009-30.156,3.37-43.847,9.896C357.096,34.718,301.007-7.423,240.423,1.176
	c-48.829,6.935-87.2,45.298-94.127,94.127C95.223,71.05,34.161,92.795,9.917,143.867S7.409,256.003,58.481,280.247
	c11.141,5.289,23.144,8.522,35.436,9.546v213.616c0,4.709,3.822,8.531,8.531,8.531h307.103c4.709,0,8.531-3.822,8.531-8.531V289.792
	c56.345-4.666,98.23-54.127,93.564-110.472C507.244,126.218,462.833,85.364,409.551,85.407z M110.979,494.877V392.51H401.02v17.061
	H128.04v17.061h272.98v68.245H110.979z M409.551,273.081c-4.709,0-8.531,3.822-8.531,8.531v93.837h-65.609l22.657-83.063
	l-16.464-4.487l-23.877,87.55H264.53v-93.837h-17.061v93.837h-53.197l-23.886-87.55l-16.464,4.487l22.666,83.063h-65.609v-93.837
	c0-4.709-3.822-8.531-8.531-8.531c-47.115,0.051-85.349-38.106-85.4-85.212c-0.051-47.115,38.106-85.349,85.221-85.4
	c16.618-0.017,32.877,4.82,46.782,13.913c3.941,2.576,9.23,1.467,11.806-2.474c0.879-1.348,1.365-2.917,1.391-4.521
	c0.7-51.781,43.242-93.189,95.014-92.489c50.791,0.691,91.798,41.698,92.489,92.489c0.077,4.709,3.967,8.462,8.676,8.386
	c1.612-0.026,3.173-0.512,4.521-1.39c39.429-25.788,92.301-14.732,118.09,24.696c25.788,39.429,14.732,92.301-24.696,118.09
	C442.428,268.261,426.169,273.098,409.551,273.081z"/>
<g>
</g>
<g>
</g>
<g>
</g>
<g>
</g>
<g>
</g>
<g>
</g>
<g>
</g>
<g>
</g>
<g>
</g>
<g>
</g>
<g>
</g>
<g>
</g>
<g>
</g>
<g>
</g>
<g>
</g>
</svg>
